<svg xmlns="http://www.w3.org/2000/svg" xmlns:xlink="http://www.w3.org/1999/xlink" xmlns:inkscape="http://www.inkscape.org/namespaces/inkscape" version="1.1" width="374.25" height="319.5" viewBox="0 0 374.25 319.5">
<defs>
<clipPath id="clip_1">
<path transform="matrix(1,0,0,-1,0,319.5)" d="M0 319.5H374.25V0H0Z"/>
</clipPath>
</defs>
<g inkscape:groupmode="layer" inkscape:label="&#x30EC;&#x30A4;&#x30E4;&#x30FC; 1">
<g clip-path="url(#clip_1)">
<path transform="matrix(1,0,0,-1,253.6885,138.188)" d="M0 0C-.037 .731-3.175 .312-3.82-.083-5.983-1.406-8.048-2.58-10.443-3.475-18.572-6.512-27.41-7.406-36.021-6.468-40.473-5.983-44.453-4.756-48.481-2.84-49.163-2.516-49.531-2.514-49.853-3.262-49.967-3.526-50.164-3.927-50.006-4.211-49.617-4.907-48.526-5.305-47.849-5.616-44.5-7.151-40.994-8.128-37.41-8.919-30.651-10.41-23.502-9.656-16.785-8.303-10.88-7.113-3.798-5.014 0 0" fill="#010101" fill-rule="evenodd"/>
<path transform="matrix(1,0,0,-1,67.125,118.312)" d="M0 0C-1.306-1.063 7.199-4.526 7.976-4.845 13.854-7.256 19.785-9.359 25.953-10.928 34.48-13.098 43.191-14.706 51.917-15.831 60.86-16.985 69.809-17.282 78.817-17.389 83.344-17.443 87.818-17.168 92.33-16.843 93.989-16.724 95.625-16.464 97.278-16.297 98.3-16.193 99.999-16.228 100.553-15.172 101.334-13.685 96.722-14.354 96.103-14.393 91.598-14.677 87.086-14.823 82.572-14.773 73.465-14.674 64.385-14.046 55.36-12.818 50.852-12.205 46.358-11.485 41.867-10.757 39.787-10.42 37.706-10.083 35.625-9.75 33.431-9.214 31.242-8.649 29.037-8.164 23.736-6.996 18.566-5.514 13.379-3.914 10.838-3.129 8.352-2.183 5.879-1.206 4.561-.685 3.245-.155 1.925 .364 .851 .787 .843 .688 0 0" fill="#010101" fill-rule="evenodd"/>
<path transform="matrix(1,0,0,-1,288.708,128.667)" d="M0 0C4.216 1.095 8.309 2.617 12.307 4.337 14.227 5.164 16.127 6.036 18.016 6.931 19.716 7.736 21.677 8.445 22.853 9.997 23.256 10.528 22.883 10.576 22.479 10.979 22.002 11.457 21.752 11.142 21.163 10.927 20.158 10.56 19.154 10.189 18.151 9.817 15.976 9.01 13.803 8.198 11.621 7.406 7.437 5.886 3.222 4.428-1.073 3.249-9.601 .906-18.386-.265-27.125-1.5-36.102-2.768-44.978-3.893-54.054-4.137-58.394-4.253-62.735-4.225-67.077-4.256-68.72-4.268-70.347-4.264-71.988-4.202-73.294-4.153-75.162-3.992-76.242-4.899-74.379-5.866-72.224-6.143-70.16-6.327-67.737-6.543-65.312-6.772-62.886-6.953-57.415-7.361-51.92-7.327-46.445-7.02-35.56-6.41-24.633-4.994-13.916-3" fill="#010101" fill-rule="evenodd"/>
<path transform="matrix(1,0,0,-1,192.5615,97.875)" d="M0 0C-.831 .941-1.491 2.028-2.311 2.983-2.734 3.478-3.189 3.987-3.739 4.346-4.476 4.827-4.609 4.568-5.166 4.041-7.655 1.677-9.603-1.242-10.975-4.38-13.954-11.189-13.958-18.46-10.862-25.208-10.438-26.135-9.981-27.047-9.508-27.95-9.172-28.59-8.85-29.548-8.234-29.985-7.644-30.404-6.758-29.891-6.408-29.376-5.85-28.554-6.932-27.394-7.305-26.628-8.948-23.262-9.855-19.552-9.908-15.805-9.96-12.096-9.178-8.398-7.684-5.007-6.94-3.318-6.023-1.706-4.962-.196-3.95 1.244-3.265-.287-2.712-1.362-.978-4.732 1.081-8.428 1.334-12.311 1.494-14.763 1.36-17.235 .886-19.647 .004-24.124-2.071-28.28-4.997-31.77-11.178-39.146-20.5-43.415-29.753-45.396-39.184-47.415-49.454-47.325-58.602-44.061-60.678-43.32-62.695-42.402-64.592-41.277-65.45-40.768-66.248-40.508-67.241-40.336-67.661-40.264-69.716-39.953-68.834-40.821-65.453-44.151-61.099-46.126-56.593-47.419-47.243-50.102-37.049-49.94-27.613-47.776-18.39-45.661-9.167-41.407-2.806-34.218 .563-30.412 2.959-25.806 3.931-20.804 5.348-13.505 3.648-6.418 0 0" fill="#010101" fill-rule="evenodd"/>
<path transform="matrix(1,0,0,-1,267.625,136.5415)" d="M0 0C-.151 .152-.2 .415-.424 .369-1.104 .229-1.797 .242-2.473 .054-3.711-.291-4.563-1.713-5.427-2.594-7.898-5.116-10.845-7.268-13.863-9.082-20.103-12.828-27.123-15.262-34.3-16.407-41.643-17.579-49.295-17.441-56.594-16.018-60.346-15.286-63.931-14.104-67.373-12.442-70.156-11.098-73.435-9.753-75.813-7.771-70.259-2.509-64.61 2.493-61.605 9.708-58.246 17.774-57.585 26.669-60.394 34.994-61.275 37.607-62.377 40.39-64.052 42.606-65.275 44.226-66.499 45.846-67.724 47.466-68.039 47.884-69.665 50.624-70.213 50.438-71.246 50.087-72.413 49.576-73.063 48.667-71.751 47.116-70.416 45.584-69.154 43.991-64.035 37.524-61.318 29.519-62.112 21.226-62.493 17.254-63.741 13.3-65.372 9.668-67.111 5.796-69.898 2.798-72.806-.23-78.156-5.804-84.733-10.264-91.931-13.083-99.858-16.188-108.723-17.305-117.2-17.187-125.287-17.073-133.44-15.401-140.755-11.889-144.067-10.298-147.22-8.275-149.806-5.646-151.311-4.117-152.85-2.622-154.366-1.104-155.517 .048-156.374 .808-158.101 .658-159.844 .507-159.033-.833-158.218-1.656-156.739-3.149-155.373-4.753-153.887-6.243-150.945-9.19-147.6-11.589-143.908-13.512-136.522-17.359-128.322-19.49-120.025-20.03-111.471-20.586-102.549-19.592-94.327-17.166-90.266-15.968-86.496-14.113-82.849-11.983-81.976-11.474-81.11-10.953-80.247-10.428-79.816-10.167-79.473-9.766-78.961-9.942-77.91-10.305-76.935-11-76.003-11.59-63.108-19.751-46.812-21.676-31.948-19.083-19.812-16.966-7.091-10.985-.25-.333" fill="#010101" fill-rule="evenodd"/>
<path transform="matrix(1,0,0,-1,201.5615,84.375)" d="M0 0C-.003-1.846 2.154-.944 3.158-.596 5.288 .144 7.454 .78 9.646 1.31 13.994 2.362 18.552 2.636 23.018 2.614 30.438 2.578 37.605 1.151 44.234-2.252 50.021-5.224 55.182-9.575 58.587-15.162 60.316-18 61.563-21.123 62.251-24.375 62.577-28.789 62.484-32.989 61.271-37.277 60.834-38.827 60.332-40.405 59.771-41.917 59.904-41.556 61.948-41.613 62.321-41.529 62.883-41.402 63.096-40.316 63.262-39.855 63.667-38.732 64.128-37.659 64.403-36.49 65.394-32.301 65.558-27.509 64.866-23.263 63.529-15.051 57.801-8.061 51.209-3.273 44.489 1.606 36.161 4.708 27.869 5.246 19.435 5.793 10.409 5.129 2.69 1.443 1.771 1.004 .873 .524 0 0" fill="#010101" fill-rule="evenodd"/>
<path transform="matrix(1,0,0,-1,172.5,83.25)" d="M0 0C-5.725 3.58-13.431 4.621-20.075 4.596-27.854 4.567-35.892 2.771-42.759-.945-49.185-4.423-54.773-9.892-58.132-16.403-59.932-19.894-60.979-23.699-61.174-27.625-61.278-29.702-61.153-31.786-60.866-33.844-60.587-35.848-60.333-38.075-59.598-39.972-59.292-40.763-58.953-41.532-58.089-41.793-57.808-41.877-57.234-42.234-57.128-41.784-56.904-40.825-57.285-39.595-57.476-38.656-58.072-35.735-58.494-32.851-58.375-29.856-58.095-22.821-55.328-15.945-50.393-10.886-38.877 .916-19.883 4.39-4.384-.278-3.268-.615 .932-2.792 0 0" fill="#010101" fill-rule="evenodd"/>
<path transform="matrix(1,0,0,-1,275.3223,108.50101)" d="M0 0C.483-4.291 .403-8.606-.491-12.833-.55-13.11-.95-15.772-1.155-15.791-2.057-15.941-2.962-16.068-3.864-16.208-2.341-8.281-2.398 .296-5.171 7.946-7.731 15.012-12.764 20.99-18.803 25.375-25.509 30.243-33.151 33.745-41.308 35.24-49.633 36.766-58.228 36.602-66.496 34.806-70.589 33.917-75.172 32.833-78.813 30.712-82.399 28.623-86.055 26.654-89.227 23.951-95.176 18.881-100.259 12.25-102.727 4.799-104.003 .947-104.547-3.656-104.128-7.696-103.71-11.739-101.904-15.496-99.991-19.022-99.741-19.483-96.803-24.119-97.183-24.392-97.558-24.661-98.631-25.761-99.072-25.749-100.43-24.243-101.677-22.635-102.774-20.928-107.184-14.07-108.718-5.856-107.125 2.143-105.568 9.966-100.975 16.838-95.604 22.587-94.143 24.15-92.44 25.468-90.896 26.948-90.335 27.485-89.806 27.692-90.53 28.192-92.017 29.221-93.638 30.094-95.263 30.882-102.401 34.345-110.441 35.782-118.325 36.034-126.753 36.304-135.402 35.073-143.189 31.743-150.271 28.714-156.467 23.857-161.648 18.204-167.265 12.075-169.987 3.179-170.042-5.013-170.056-7.065-169.873-9.105-169.696-11.147-169.612-12.121-169.528-13.094-169.462-14.068-169.432-14.524-169.405-14.98-169.385-15.437-169.812-15.488-170.258-15.45-170.672-15.335-172.336-14.871-172.576-12.702-172.65-11.246-172.758-9.144-172.817-7.028-172.879-4.924-173.126 3.494-171.026 12.167-165.588 18.794-160.115 25.465-153.342 30.806-145.43 34.292-137.69 37.703-129.326 39.218-120.896 39.306-113.285 39.385-105.465 38.468-98.339 35.679-94.526 34.187-91.028 32.028-87.649 29.738-83.798 31.582-80.248 33.954-76.256 35.516-68.629 38.5-60.335 39.417-52.196 39.459-36.083 39.542-19.691 33.197-9.091 20.76-4.056 14.854-.852 7.749 0 0" fill="#010101" fill-rule="evenodd"/>
<path transform="matrix(1,0,0,-1,130.8267,233.9072)" d="M0 0C0-.618-1.046-3.386-3.137-8.303-5.229-13.22-6.274-15.962-6.274-16.529H-8.163C-8.163-15.784-8.923-13.626-10.443-10.055-12.099-6.187-13.038-3.694-13.261-2.577H-13.45C-13.643-3.762-14.476-6.301-15.948-10.194-17.323-13.842-18.01-15.954-18.01-16.529H-19.898C-19.898-15.666-20.922-12.773-22.97-7.853-25.018-2.931-26.042-.313-26.042 0H-23.282C-23.282-.347-22.549-2.539-21.082-6.576-19.615-10.613-18.881-13.085-18.881-13.99H-18.722C-18.722-13.034-17.976-10.577-16.485-6.62-14.994-2.664-14.249-.457-14.249 0H-11.707C-11.707-.55-10.932-2.896-9.383-7.04-7.833-11.183-7.059-13.499-7.059-13.99H-6.899C-6.899-13.161-6.195-10.814-4.786-6.95-3.377-3.087-2.672-.771-2.672 0Z" fill="#010101"/>
<path transform="matrix(1,0,0,-1,152.5898,248.5195)" d="M0 0-.087-1.917H-11.793C-11.658 .707-11.59 3.602-11.59 6.767-11.59 9.746-11.658 12.361-11.793 14.612H-.813L-.929 12.721C-3.592 12.822-6.415 12.873-9.397 12.873-9.339 11.562-9.31 9.788-9.31 7.554-6.734 7.554-4.439 7.604-2.425 7.706V5.814C-4.575 5.891-6.87 5.929-9.31 5.929-9.31 3.754-9.266 1.714-9.179-.19-5.964-.19-2.905-.127 0 0" fill="#010101"/>
<path transform="matrix(1,0,0,-1,175.8438,242.1465)" d="M0 0C0 1.879-.685 3.449-2.055 4.71-3.425 5.971-5.543 6.602-8.409 6.602-8.816 6.602-9.373 6.56-10.08 6.475-10.002 4.503-9.963 2.476-9.963 .394-9.963-1.892-9.91-4.211-9.804-6.563-9.029-6.699-8.284-6.767-7.567-6.767-5.011-6.767-3.11-6.104-1.866-4.779-.622-3.455 0-1.862 0 0M2.527 .571C2.527-1.832 1.649-3.939-.109-5.751-1.866-7.563-4.29-8.468-7.378-8.468-8.385-8.468-10.065-8.408-12.418-8.29-12.272-5.666-12.2-2.771-12.2 .394-12.2 3.373-12.272 5.988-12.418 8.239H-10.82C-10.433 8.239-9.842 8.252-9.048 8.277-8.254 8.303-7.731 8.315-7.479 8.315-4.062 8.315-1.54 7.581 .087 6.113 1.714 4.645 2.527 2.797 2.527 .571" fill="#010101"/>
<path transform="matrix(1,0,0,-1,202.0967,242.1465)" d="M0 0C0 1.879-.686 3.449-2.056 4.71-3.426 5.971-5.544 6.602-8.41 6.602-8.816 6.602-9.373 6.56-10.08 6.475-10.003 4.503-9.964 2.476-9.964 .394-9.964-1.892-9.911-4.211-9.804-6.563-9.029-6.699-8.284-6.767-7.567-6.767-5.011-6.767-3.111-6.104-1.866-4.779-.622-3.455 0-1.862 0 0M2.527 .571C2.527-1.832 1.648-3.939-.109-5.751-1.866-7.563-4.29-8.468-7.379-8.468-8.386-8.468-10.065-8.408-12.418-8.29-12.273-5.666-12.2-2.771-12.2 .394-12.2 3.373-12.273 5.988-12.418 8.239H-10.82C-10.434 8.239-9.843 8.252-9.049 8.277-8.255 8.303-7.732 8.315-7.48 8.315-4.063 8.315-1.54 7.581 .087 6.113 1.714 4.645 2.527 2.797 2.527 .571" fill="#010101"/>
<path transform="matrix(1,0,0,-1,218.6855,250.4365)" d="M0 0H-2.76C-2.614 2.742-2.542 5.637-2.542 8.684-2.542 11.68-2.614 14.295-2.76 16.529H0C-.136 14.219-.203 11.604-.203 8.684-.203 5.62-.136 2.726 0 0" fill="#010101"/>
<path transform="matrix(1,0,0,-1,245.8271,250.4365)" d="M0 0H-2.033C-2.033 .144-3.621 2.171-6.797 6.081-10.118 10.186-12.011 12.775-12.476 13.851H-12.621C-12.447 11.811-12.359 10.063-12.359 8.607-12.359 5.764-12.287 2.895-12.142 0H-14.582C-14.417 2.751-14.335 5.646-14.335 8.684-14.335 11.671-14.417 14.286-14.582 16.529H-11.793C-11.793 16.292-10.331 14.362-7.407 10.74-4.348 6.932-2.604 4.452-2.179 3.301H-2.033C-2.198 5.366-2.28 7.118-2.28 8.557-2.28 11.688-2.348 14.346-2.483 16.529H0C-.164 14.286-.247 11.671-.247 8.684-.247 5.646-.164 2.751 0 0" fill="#010101"/>
<path transform="matrix(1,0,0,-1,272.3193,250.09369)" d="M0 0C-1.588-.457-3.19-.686-4.808-.686-8.206-.686-10.77 .107-12.498 1.695-14.227 3.281-15.091 5.243-15.091 7.579-15.091 9.94-14.151 12.004-12.272 13.768-10.395 15.533-7.79 16.415-4.459 16.415-3.258 16.415-2.12 16.292-1.046 16.047L-1.409 13.939C-3.007 14.278-4.294 14.447-5.272 14.447-7.615 14.447-9.409 13.827-10.653 12.588-11.897 11.348-12.52 9.81-12.52 7.973-12.52 6.128-11.806 4.511-10.377 3.123-8.949 1.735-6.933 1.041-4.328 1.041-3.854 1.041-3.142 1.104-2.193 1.231-2.357 2.111-2.439 3.136-2.439 4.304-2.439 5.285-2.508 6.246-2.644 7.186H0C-.077 6.068-.116 4.888-.116 3.644-.116 3.11-.077 1.896 0 0" fill="#010101"/>
<path transform="matrix(1,0,0,-1,60.8643,196.7803)" d="M0 0C0 6.387 0 7.532-.094 8.843-.188 10.234-.562 10.89-2.108 11.177-2.483 11.258-3.279 11.299-3.701 11.299-3.888 11.299-4.076 11.381-4.076 11.545-4.076 11.79-3.841 11.872-3.326 11.872-1.218 11.872 1.546 11.749 1.827 11.749 2.249 11.749 4.965 11.872 6.371 11.872 6.886 11.872 7.12 11.79 7.12 11.545 7.12 11.381 6.933 11.299 6.746 11.299 6.417 11.299 6.137 11.258 5.574 11.177 4.31 10.972 3.935 10.275 3.841 8.843 3.748 7.532 3.748 6.387 3.748 0V-2.456H3.935C4.731-1.679 13.21 5.854 14.896 7.451 16.208 8.638 17.426 9.702 17.426 10.398 17.426 10.89 17.192 11.136 16.817 11.258 16.583 11.34 16.396 11.422 16.396 11.586 16.396 11.79 16.63 11.872 16.958 11.872 17.895 11.872 19.347 11.749 20.471 11.749 20.705 11.749 23.797 11.872 24.968 11.872 25.483 11.872 25.671 11.79 25.671 11.586 25.671 11.381 25.577 11.299 25.202 11.299 24.5 11.299 23.516 11.095 22.579 10.726 20.658 9.989 19.628 8.966 17.52 7.205 16.349 6.223 8.198-.737 7.214-1.761 8.432-2.948 18.176-11.75 20.096-13.306 24.031-16.499 24.828-17.153 27.076-17.973 28.294-18.423 29.652-18.505 29.98-18.505 30.308-18.505 30.589-18.587 30.589-18.75 30.589-18.955 30.355-19.078 29.559-19.078H27.17C25.858-19.078 24.968-19.078 23.938-18.996 21.455-18.791 20.284-17.891 18.27-16.499 16.161-14.984 6.23-5.608 3.982-3.193H3.748V-7.205C3.748-11.136 3.748-14.37 3.982-16.089 4.122-17.276 4.403-18.177 5.809-18.341 6.464-18.423 7.214-18.505 7.636-18.505 7.917-18.505 8.01-18.628 8.01-18.75 8.01-18.955 7.776-19.078 7.261-19.078 4.965-19.078 2.249-18.955 1.874-18.955 1.499-18.955-1.218-19.078-2.624-19.078-3.139-19.078-3.373-18.996-3.373-18.75-3.373-18.628-3.279-18.505-2.998-18.505-2.577-18.505-2.014-18.423-1.593-18.341-.656-18.177-.422-17.276-.234-16.089 0-14.37 0-11.136 0-7.205Z" fill="#010101"/>
<path transform="matrix(1,0,0,-1,115.0137,214.876)" d="M0 0C4.216 0 12.929 2.129 12.929 14.043 12.929 23.868 6.09 29.149-1.312 29.149-9.135 29.149-14.99 24.646-14.99 15.68-14.99 6.142-8.432 0 0 0M-.984 30.541C9.556 30.541 17.426 24.728 17.426 15.188 17.426 6.019 10.025-1.556-1.265-1.556-14.1-1.556-19.44 7.165-19.44 14.534-19.44 21.166-13.913 30.541-.984 30.541" fill="#010101"/>
<path transform="matrix(1,0,0,-1,157.1704,203.9854)" d="M0 0C0-3.931 0-7.165 .234-8.884 .375-10.071 .656-10.972 2.061-11.136 2.717-11.218 3.748-11.3 4.169-11.3 4.45-11.3 4.543-11.423 4.543-11.545 4.543-11.75 4.31-11.873 3.794-11.873 1.218-11.873-1.733-11.75-1.968-11.75-2.202-11.75-5.153-11.873-6.559-11.873-7.074-11.873-7.308-11.791-7.308-11.545-7.308-11.423-7.214-11.3-6.933-11.3-6.512-11.3-5.95-11.218-5.528-11.136-4.591-10.972-4.357-10.071-4.169-8.884-3.935-7.165-3.935-3.931-3.935 0V17.317L-10.868 17.235C-13.772 17.194-14.897 16.907-15.646 15.925-16.162 15.229-16.302 14.942-16.443 14.656-16.583 14.328-16.724 14.246-16.911 14.246-17.052 14.246-17.146 14.369-17.146 14.615-17.146 15.024-16.208 18.545-16.115 18.873-16.021 19.118-15.833 19.65-15.646 19.65-15.318 19.65-14.85 19.241-13.585 19.159-12.227 19.036-10.447 18.954-9.884 18.954H7.682C9.181 18.954 10.259 19.036 11.008 19.159 11.711 19.241 12.132 19.364 12.32 19.364 12.554 19.364 12.554 19.118 12.554 18.873 12.554 17.645 12.414 14.819 12.414 14.369 12.414 14.001 12.273 13.837 12.085 13.837 11.852 13.837 11.758 13.96 11.711 14.533L11.664 14.983C11.523 16.212 10.399 17.153 5.902 17.235L0 17.317Z" fill="#010101"/>
<path transform="matrix(1,0,0,-1,196.8916,214.876)" d="M0 0C4.216 0 12.929 2.129 12.929 14.043 12.929 23.868 6.09 29.149-1.312 29.149-9.135 29.149-14.99 24.646-14.99 15.68-14.99 6.142-8.432 0 0 0M-.983 30.541C9.557 30.541 17.426 24.728 17.426 15.188 17.426 6.019 10.024-1.556-1.265-1.556-14.1-1.556-19.44 7.165-19.44 14.534-19.44 21.166-13.913 30.541-.983 30.541" fill="#010101"/>
<path transform="matrix(1,0,0,-1,267.1992,203.9854)" d="M0 0C0-3.931 0-7.165 .234-8.884 .375-10.071 .655-10.972 2.061-11.136 2.717-11.218 3.747-11.3 4.169-11.3 4.45-11.3 4.544-11.423 4.544-11.545 4.544-11.75 4.31-11.873 3.794-11.873 1.218-11.873-1.733-11.75-1.968-11.75-2.202-11.75-5.153-11.873-6.559-11.873-7.073-11.873-7.308-11.791-7.308-11.545-7.308-11.423-7.214-11.3-6.934-11.3-6.512-11.3-5.949-11.218-5.527-11.136-4.591-10.972-4.356-10.071-4.169-8.884-3.936-7.165-3.936-3.931-3.936 0V7.205C-3.936 13.592-3.936 14.737-4.029 16.048-4.122 17.439-4.591 18.136-5.621 18.341-6.137 18.463-6.746 18.504-7.073 18.504-7.261 18.504-7.448 18.586-7.448 18.75-7.448 18.995-7.214 19.077-6.699 19.077-5.153 19.077-2.202 18.954-1.968 18.954-1.733 18.954 1.218 19.077 2.623 19.077 3.139 19.077 3.373 18.995 3.373 18.75 3.373 18.586 3.186 18.504 2.998 18.504 2.67 18.504 2.389 18.463 1.827 18.382 .562 18.177 .188 17.48 .094 16.048 0 14.737 0 13.592 0 7.205Z" fill="#010101"/>
<path transform="matrix(1,0,0,-1,301.4873,214.876)" d="M0 0C4.216 0 12.929 2.129 12.929 14.043 12.929 23.868 6.09 29.149-1.312 29.149-9.135 29.149-14.99 24.646-14.99 15.68-14.99 6.142-8.432 0 0 0M-.983 30.541C9.557 30.541 17.426 24.728 17.426 15.188 17.426 6.019 10.024-1.556-1.265-1.556-14.101-1.556-19.44 7.165-19.44 14.534-19.44 21.166-13.913 30.541-.983 30.541" fill="#010101"/>
<path transform="matrix(1,0,0,-1,225.9824,215.3252)" d="M0 0C-.871 .287-.933 .45-.933 1.556-.933 3.603-.685 5.24-.622 5.896-.56 6.346-.436 6.551-.124 6.551 .249 6.551 .312 6.428 .312 6.101 .312 5.731 .312 5.158 .498 4.585 1.431 1.556 5.537 .409 9.705 .409 15.677 .409 18.601 3.234 18.601 5.854 18.601 8.68 16.797 10.317 11.447 13.224L8.647 14.738C2.053 18.3 .56 20.838 .56 23.622 .56 28.003 5.537 30.991 13.438 30.991 15.863 30.991 17.668 30.827 19.223 30.582 20.405 30.418 20.902 30.377 21.4 30.377 21.898 30.377 22.022 30.295 22.022 30.091 22.022 29.886 21.773 28.535 21.773 25.751 21.773 25.096 21.649 24.81 21.338 24.81 20.965 24.81 20.902 25.014 20.841 25.342 20.778 25.833 20.405 26.938 20.032 27.389 19.658 27.839 17.979 29.559 12.256 29.559 7.963 29.559 4.604 27.798 4.604 24.81 4.604 22.476 6.221 21.002 12.193 17.932L13.936 17.031C21.276 13.224 23.018 10.686 23.018 7.41 23.018 5.731 22.022 2.62 17.73 .614 15.055-.614 11.695-1.105 8.336-1.105 5.412-1.105 2.551-.818 0 0" fill="#010101"/>
</g>
</g>
</svg>
